<?xml version="1.0" encoding="utf-8"?>
<!-- Generator: Adobe Illustrator 16.0.0, SVG Export Plug-In . SVG Version: 6.00 Build 0)  -->
<!DOCTYPE svg PUBLIC "-//W3C//DTD SVG 1.1//EN" "http://www.w3.org/Graphics/SVG/1.1/DTD/svg11.dtd">
<svg version="1.1" id="Layer_1" xmlns="http://www.w3.org/2000/svg" xmlns:xlink="http://www.w3.org/1999/xlink" x="0px" y="0px"
	 width="768px" height="1024px" viewBox="0 0 768 1024" enable-background="new 0 0 768 1024" xml:space="preserve">
<g>
	<path d="M65.262,649.938l43.543-311.868h49.21l-2.318,19.25h-30.083L87.08,630.515h30.083l-2.69,19.423H65.262z"/>
	<path d="M153.093,571.634c1.204-9.343,2.145-16.771,2.833-22.301c0.686-5.529,1.199-9.771,1.546-12.727s0.554-5.006,0.646-6.151
		c0.08-1.141,0.12-2.093,0.12-2.856c0-2.856-0.339-5.289-1.022-7.292c-0.693-1.999-1.723-4.144-3.092-6.434
		c-2.232-3.425-4.471-6.619-6.698-9.576c-2.234-2.955-4.504-5.909-6.823-8.866c-2.319-2.956-4.681-6.103-7.087-9.438
		c-2.404-3.337-4.893-7.099-7.466-11.293c-1.723-2.671-2.875-5.242-3.474-7.722c-0.61-2.475-0.903-5.241-0.903-8.291
		c0-1.146,0.04-2.433,0.127-3.863c0.087-1.428,0.342-3.86,0.775-7.287c0.426-3.437,0.982-8.152,1.666-14.159
		c0.688-5.998,1.728-14.153,3.102-24.445c3.255-25.925,15.873-38.89,37.858-38.89c9.958,0,17.127,2.288,21.508,6.862
		c4.374,4.575,6.566,11.537,6.566,20.875c0,3.429-0.259,7.144-0.773,11.152L189.17,434.9h-18.289l3.076-23.111
		c0.163-1.141,0.297-2.284,0.379-3.432c0.09-1.146,0.134-2.188,0.134-3.144c0-4.005-0.818-7.193-2.446-9.578
		c-1.634-2.383-4.599-3.573-8.891-3.573c-9.1,0-14.424,5.623-15.97,16.87c-1.199,9.533-2.147,17.017-2.83,22.446
		c-0.688,5.433-1.2,9.575-1.544,12.439c-0.349,2.858-0.561,4.766-0.648,5.718c-0.085,0.952-0.127,1.711-0.127,2.288
		c0,2.101,0.262,3.91,0.775,5.431c0.514,1.531,1.289,3.148,2.319,4.861c4.287,7.25,8.76,13.632,13.387,19.161
		c4.638,5.529,9.276,11.911,13.915,19.156c2.06,3.241,3.561,6.486,4.506,9.72c0.942,3.248,1.416,7.062,1.416,11.444
		c0,1.137-0.047,2.527-0.132,4.144c-0.087,1.617-0.342,4.148-0.769,7.575c-0.436,3.431-1.034,8.154-1.805,14.155
		c-0.773,6.01-1.763,14.065-2.96,24.162c-1.721,12.58-5.497,22.211-11.332,28.88c-5.845,6.68-14.683,10.008-26.528,10.008
		c-9.965,0-17.257-2.527-21.899-7.57c-4.629-5.054-6.948-12.346-6.948-21.881c0-2.861,0.259-6.005,0.768-9.437l4.346-28.684h18.803
		l-3.83,25.539c-0.175,1.146-0.302,2.239-0.387,3.29c-0.089,1.047-0.13,2.051-0.13,2.998c0,4.389,0.855,7.867,2.576,10.44
		c1.716,2.574,4.721,3.861,9.012,3.861c4.98,0,8.668-1.476,11.08-4.432C150.604,581.692,152.232,577.347,153.093,571.634z"/>
	<path d="M244.74,370.043c-12.583,0-22.303,3.384-29.166,10.15c-6.86,6.767-11.247,16.727-13.151,29.88l-21.732,156.7
		c-0.329,1.967-0.552,3.899-0.692,5.807c0,1.144,0,2.271,0,3.369c0,20.202,10.773,30.311,32.314,30.311
		c6.394,0,12.045-0.878,16.961-2.626l6.378,10.039l11.764-7.475l-6.235-9.812c0.098-0.094,0.2-0.182,0.297-0.276
		c6.86-6.767,11.247-16.727,13.151-29.88l21.732-156.7c0.329-1.967,0.552-3.899,0.692-5.807c0-1.144,0-2.271,0-3.369
		C277.054,380.151,266.281,370.043,244.74,370.043z M255.487,405.556c0,0.542-0.067,1.164-0.167,1.819c0,0.096,0,0.197,0,0.292
		c0,0.672-0.094,1.478-0.283,2.435l-22.425,158.072c-0.564,3.938-1.6,7.218-3.087,9.865l-6.65-10.466l-11.764,7.473l6.93,10.906
		c-1.12,0.174-2.298,0.266-3.542,0.266c-8.619,0-12.932-4.389-12.932-13.171c0-0.763,0-1.526,0-2.3c0-0.542,0.067-1.164,0.167-1.819
		c0-0.096,0-0.197,0-0.292c0-0.672,0.094-1.478,0.283-2.435l22.425-158.072c1.725-12.034,7.763-18.044,18.115-18.044
		c8.619,0,12.932,4.389,12.932,13.171C255.487,404.019,255.487,404.782,255.487,405.556z"/>
	<path d="M345.393,372.611h21.735l-27.74,197.877c-3.625,26.693-17.827,40.033-42.609,40.033c-21.346,0-32.022-10.008-32.022-30.026
		c0-2.856,0.285-6.185,0.855-10.007l27.74-197.877h21.732l-27.738,197.877c-0.19,0.961-0.285,1.819-0.285,2.578
		c0,0.764,0,1.527,0,2.281c0,9.154,4.285,13.731,12.866,13.731c10.099,0,16.015-6.194,17.73-18.591L345.393,372.611z"/>
	<path d="M702.215,338.091l-43.543,311.868h-49.211l2.318-19.25h30.083l38.534-273.195h-30.082l2.689-19.423H702.215z"/>
	<path d="M399.266,589.103h-27.288l12.303-88.565h20.65l3.148-22.286h-20.655l11.436-83.354h40.604l3.153-22.286h-62.343
		l-32.882,238.197h33.685C381.373,609.798,385.601,596.145,399.266,589.103z"/>
	<path d="M447.521,609.722c0.035,0.363,0.057,0.726,0.077,1.087h0.099c1.653-2.398,3.683-3.944,6.178-4.186l0.913-0.043
		c2.412,0,5.675,0.944,8.283,2.73c0.887-3.445,3.863-5.931,7.802-6.294c3.123-0.303,7.641,0.637,10.949,2.965
		c0.59-1.104,1.328-2.04,2.25-2.771l1.857-14.107h-42.032l12.294-88.565h20.654l3.145-22.286h-20.65l11.439-83.354h40.604
		l3.145-22.286h-62.334l-29.386,212.834C436.408,587.592,446.319,597.113,447.521,609.722z"/>
	<path d="M491.012,601.398c1.836,0.143,3.651,0.636,5.115,1.198c2.545-3.525,7.111-5.403,12.482-4.64
		c4.228,0.589,7.356,2.785,8.87,6.087c4.322-5.17,9.956-8.416,16.536-9.048c0.777-0.073,1.559-0.113,2.343-0.113
		c6.835,0,11.946,3.275,14.243,8.818c3.645-8.356,8.433-12.866,14.295-13.422c0.43-0.042,0.869-0.063,1.314-0.064l0.219-1.697
		H515.24l78.35-195.935l2.861-19.972h-71.779l-2.853,21.422h50.036L492.652,588.81L491.012,601.398z"/>
	<g>
		<path d="M613.381,598.515c0.271,2.837-0.463,5.61-1.283,8.531c0.009-0.003,0.016-0.003,0.025-0.003l0.824-0.04
			c3.005,0,5.717,1.518,7.294,3.806h17.393l2.847-21.706h-35.266C609.922,590.332,612.935,593.751,613.381,598.515z"/>
		<path d="M606.74,372.611l-30.57,221.455c0.486,0.436,0.957,0.911,1.41,1.43c1.399-1.849,3.408-3.014,6.26-3.278
			c2.345-0.233,5.192,0.406,7.226,1.188c1.694-2.343,4.294-3.955,7.419-4.552l12.263-88.316h20.65l3.144-22.286h-20.654
			l11.439-83.354h40.608l3.144-22.286H606.74z"/>
	</g>
	<g>
		<path d="M404.316,680.986c-1.549-0.072-2.785-0.291-3.154-0.805c-2.004-2.449-1.131-3.748-0.459-5.903
			c0.433-0.046,1.99,0.026,3.646,0.087c0.604-23.758,2.245-61.952,3.586-68.697c0.591-4.132,5.127-4.018,8.444-1.567
			c-0.677,4.356-1.209,13.889-1.709,24.855c0.986-0.1,2.092-0.091,3.082-0.072c9.408-4.313,14.808-12.336,13.907-21.726
			c-0.659-6.989-6.804-10.152-13.907-9.479c-11.154,1.063-16.521,7.095-19.33,12.315c-0.186,0.354,0.85,0.81,0.664,1.154
			c-0.373,0.692-3.027,5.245-3.791,5.318c-0.985,0.1-7.166-2.29-7.521-3.686c0,0,5.391-18.712,25.925-20.661
			c15.402-1.478,25.842,7.449,26.874,18.265c0.768,7.981-3.486,15.436-11.604,20.508c8.79,3.137,15.594,9.757,16.448,18.716
			c1.536,16.062-13.121,28.814-30.928,30.51l-1.091,0.104c-0.037,0.778-0.064,1.664,0,2.318c-0.023,0.891-0.642,1.391-1.633,1.48
			c-2.29,0.219-6.862-1.544-7.48-2.262C404.263,681.545,404.23,681.215,404.316,680.986z M414.394,636.365
			c-0.382,13.38-0.777,27.633-0.941,37.459c14.476-3.036,23.284-13.68,21.916-27.884c-0.8-8.417-8.126-11.24-15.907-10.825
			C417.848,635.601,416.12,635.983,414.394,636.365z"/>
		<path d="M469.695,650.936c-0.949,5.159-3.217,17.062-8.253,17.544c-4.804,0.454-13.163-6.245-13.87-13.673
			c-1.224-12.779,2.939-40.844,6.976-41.234c1.427-0.132,4.504,1.005,5.636,2.44c-2.641,13.926-4.24,29.506-2.945,43.05l1.586,0.408
			c6.645-13.544,10.744-36.313,10.958-48.016c0.018-0.996,0.745-1.396,1.731-1.487c3.178-0.3,7.432,1.6,7.604,3.464
			c0.387,4.035-2.59,28.26-1.813,36.449c0.246,2.499,1.687,8.326,5.396,7.973c4.699-0.455,5.708-10.698,5.708-10.698
			c0.986-0.083,2.963-0.164,3.209,2.453c0.396,4.149-4.331,14.743-10.554,15.34c-8.299,0.795-10.457-7.932-10.73-14.186
			L469.695,650.936z"/>
		<path d="M496.684,631.155c2.182-7.257,3.422-17.307,4.436-22.915c0.514-2.694,3.264-3.836,6.5-3.373
			c2.35,0.328,3.658,1.306,3.867,3.492c0.387,4.035-3.695,10.936-2.932,18.916c0.145,1.525,1.837,3.117,3.591,2.954
			c4.372-0.419,5.063-6.981,5.722-7.05c0.764-0.072,1.805,0.491,1.883,1.26c0.145,3.835-2.646,10.389-8.332,10.935
			c-6.439,0.613-8.489-3.49-9.39-8.259c-1.399,6.091-5.44,19.153-3.949,37.092c-2.373,1.768-9.758-0.614-9.995-3.018
			c-0.295-3.163,0.514-7.326-0.877-31.12c-0.695-10.844-1.377-21.364,2.342-21.714c2.84-0.27,6.467,1.916,6.467,1.916
			c0.24,5.931-0.408,14.148-0.118,20.63L496.684,631.155z"/>
		<path d="M530.484,679.073c4.699-2.646,9.281-14.767,10.271-27.429c-1.609,2.796-4.645,9.04-8.904,9.454
			c-8.744,0.826-15.221-6.936-16.493-20.262c-1.882-19.774,5.559-37.569,19.325-38.891c4.381-0.415,9.535,0.527,10.208,7.518
			c0.06,0.658,0.032,1.54,0.032,1.54c0.658-0.06,4.963-0.027,4.872,2.518c-0.487,8.749-0.2,25.592-2.213,42.649
			c-2.255,19.071-8.073,28.552-14.085,29.129c-8.305,0.796-15.83-3.004-17.453-6.05c-1.75-3.354,0.468-7.876,5.686-7.489
			C523.344,674.797,528.748,678.26,530.484,679.073z M530.643,654.263c5.791-0.556,10.322-17.744,10.05-28.741
			c0,0-1.409,0.249-3.108-1.355c0.939-2.846,0.936-8.689,0.686-11.317c-0.231-2.286-1.631-4.363-3.703-4.163
			c-7.978,0.759-11.317,24.679-10.227,36.146C524.99,651.599,527.799,654.534,530.643,654.263z"/>
		<path d="M565.558,597.228c4.163-0.399,9.271,2.424,10.235,12.477c1.327,13.975-1.282,27.016-9.913,27.842
			c-4.69,0.445-6.772-3.991-6.772-3.991s-1.417,5.978-0.567,14.836c0.491,5.131,2.818,8.763,8.39,8.226
			c8.418-0.791,17.402-15.507,16.721-22.715c0,0-0.117-1.201,1.414-1.35c1.745-0.169,3.377,1.882,3.668,4.944
			c0.904,9.504-6.981,26.534-19.107,27.688c-8.403,0.809-17.021-6.204-18.32-19.853
			C549.564,627.089,555.949,598.143,565.558,597.228z M562.958,631.211c3.831-0.368,5.927-13.026,4.968-23.07
			c-0.441-4.586-1.26-5.071-1.795-5.019c-0.441,0.046-0.945,0.537-1.451,2.134c-2.068,6.143-4.262,15.388-4.713,23.473
			C559.967,628.729,560.781,631.419,562.958,631.211z"/>
		<path d="M591.632,621.967c2.172-7.263,3.413-17.304,4.422-22.912c0.515-2.699,3.272-3.839,6.518-3.381
			c2.345,0.331,3.654,1.305,3.858,3.491c0.387,4.049-3.699,10.943-2.939,18.92c0.154,1.518,1.844,3.126,3.594,2.954
			c4.368-0.418,5.068-6.985,5.719-7.049c0.775-0.078,1.809,0.485,1.885,1.259c0.154,3.836-2.645,10.385-8.326,10.926
			c-6.439,0.627-8.49-3.481-9.381-8.245c-1.412,6.081-4.789,24.575-3.295,42.514c-2.371,1.765-9.767-0.613-9.989-3.017
			c-0.305-3.17-0.159-12.745-1.536-36.538c-0.709-10.856-1.387-21.375,2.327-21.72c2.841-0.277,6.468,1.913,6.468,1.913
			c0.245,5.932-0.396,14.148-0.123,20.634L591.632,621.967z"/>
	</g>
</g>
</svg>
